HIERARCHY
ROOT Hips
{
	OFFSET 0.000000 93.594000 0.000000
	CHANNELS 6 Xposition Yposition Zposition Yrotation Xrotation Zrotation
	JOINT RightUpLeg
	{
		OFFSET -9.500000 -1.594000 0.000000
		CHANNELS 3 Yrotation Xrotation Zrotation
		JOINT RightLeg
		{
			OFFSET 0.000000 -42.000000 0.000000
			CHANNELS 3 Yrotation Xrotation Zrotation
			JOINT RightFoot
			{
				OFFSET 0.000000 -42.000000 0.000000
				CHANNELS 3 Yrotation Xrotation Zrotation
				End Site
				{
					OFFSET 0.000000 -8.000000 17.500000
				}
			}
		}
	}
	JOINT LeftUpLeg
	{
		OFFSET 9.500000 -1.594000 0.000000
		CHANNELS 3 Yrotation Xrotation Zrotation
		JOINT LeftLeg
		{
			OFFSET 0.000000 -42.000000 0.000000
			CHANNELS 3 Yrotation Xrotation Zrotation
			JOINT LeftFoot
			{
				OFFSET 0.000000 -42.000000 0.000000
				CHANNELS 3 Yrotation Xrotation Zrotation
				End Site
				{
					OFFSET 0.000000 -8.000000 17.500000
				}
			}
		}
	}
	JOINT Spine
	{
		OFFSET 0.000000 14.348000 0.000000
		CHANNELS 3 Yrotation Xrotation Zrotation
		JOINT Spine1
		{
			OFFSET 0.000000 9.746000 0.000000
			CHANNELS 3 Yrotation Xrotation Zrotation
			JOINT Spine2
			{
				OFFSET 0.000000 10.149000 0.000000
				CHANNELS 3 Yrotation Xrotation Zrotation
				JOINT Spine3
				{
					OFFSET 0.000000 9.746000 0.000000
					CHANNELS 3 Yrotation Xrotation Zrotation
					JOINT Neck
					{
						OFFSET 0.000000 10.417000 0.000000
						CHANNELS 3 Yrotation Xrotation Zrotation
						JOINT Head
						{
							OFFSET 0.000000 9.000000 0.000000
							CHANNELS 3 Yrotation Xrotation Zrotation
							End Site
							{
								OFFSET 0.000000 16.000000 0.000000
							}
						}
					}
					JOINT RightShoulder
					{
						OFFSET -3.200000 6.945000 0.000000
						CHANNELS 3 Yrotation Xrotation Zrotation
						JOINT RightArm
						{
							OFFSET -12.800000 0.000000 0.000000
							CHANNELS 3 Yrotation Xrotation Zrotation
							JOINT RightForeArm
							{
								OFFSET -27.000000 0.000000 0.000000
								CHANNELS 3 Yrotation Xrotation Zrotation
								JOINT RightHand
								{
									OFFSET -26.000000 0.000000 0.000000
									CHANNELS 3 Yrotation Xrotation Zrotation
									End Site
									{
										OFFSET -3.479000 0.532000 0.778000
									}
								}
							}
						}
					}
					JOINT LeftShoulder
					{
						OFFSET 3.200000 6.945000 0.000000
						CHANNELS 3 Yrotation Xrotation Zrotation
						JOINT LeftArm
						{
							OFFSET 12.800000 0.000000 0.000000
							CHANNELS 3 Yrotation Xrotation Zrotation
							JOINT LeftForeArm
							{
								OFFSET 27.000000 0.000000 0.000000
								CHANNELS 3 Yrotation Xrotation Zrotation
								JOINT LeftHand
								{
									OFFSET 26.000000 0.000000 0.000000
									CHANNELS 3 Yrotation Xrotation Zrotation
									End Site
									{
										OFFSET 3.479000 0.532000 0.778000
									}
								}
							}
						}
					}
				}
			}
		}
	}
}
MOTION
Frames: 15
Frame Time: 0.010000
23.56 87.46 20.61 -144.03 -0.67 0.56 -0.41 4.07 0.98 0.0 34.99 0.0 -18.46 -29.86 14.78 -3.19 -34.09 7.2 -0.0 34.01 0.0 -8.35 -5.26 -5.04 16.4 8.86 3.49 4.16 2.41 0.64 6.85 4.04 1.13 -0.62 -0.03 -0.27 -0.62 -0.03 -0.27 -11.19 -1.76 -4.82 -5.22 -5.86 2.6 19.32 -25.46 46.45 48.23 -13.9 1.43 5.2 -4.23 -23.99 6.54 -8.43 -10.09 -23.42 38.12 -88.89 -18.72 22.12 -3.74 -26.86 -39.75 -1.98
23.87 87.41 20.65 -143.64 -1.38 0.93 -0.44 4.55 0.85 -0.0 35.45 -0.0 -18.93 -30.24 15.69 -3.24 -33.4 6.78 0.0 33.78 -0.0 -8.63 -5.45 -4.78 15.23 7.42 3.3 3.86 2.0 0.64 6.35 3.32 1.12 -0.6 -0.16 -0.36 -0.6 -0.17 -0.36 -10.44 -5.03 -6.09 -5.24 -3.81 3.15 19.21 -21.24 48.24 48.7 -12.08 3.64 4.13 -4.15 -23.42 5.23 -7.54 -9.0 -22.45 36.78 -84.23 -27.4 16.84 -4.65 -23.66 -40.85 -0.29
24.06 87.43 20.8 -143.99 -2.3 1.17 -1.33 5.08 0.36 -0.0 35.88 -0.0 -18.47 -30.3 15.15 -3.3 -32.35 6.58 -0.0 33.56 -0.0 -8.0 -5.54 -4.34 14.15 6.76 4.22 3.59 1.78 0.9 5.95 2.91 1.53 -0.48 -0.2 -0.44 -0.48 -0.2 -0.44 -8.01 -4.67 -7.7 -6.58 -3.27 1.84 13.57 -19.18 49.6 49.59 -10.96 5.47 3.48 -3.96 -23.76 2.64 -5.88 -7.18 -20.03 35.99 -79.59 -37.41 14.53 -7.23 -24.18 -41.05 4.19
24.26 87.48 20.99 -141.57 -2.69 1.39 -2.84 5.54 0.39 0.0 35.86 0.0 -19.48 -29.97 15.86 -5.66 -31.79 6.2 -0.0 32.45 -0.0 -8.54 -5.47 -4.61 13.21 6.39 4.51 3.35 1.68 0.99 5.57 2.72 1.67 -0.45 -0.18 -0.45 -0.46 -0.18 -0.45 -7.72 -4.2 -7.86 -5.8 -2.78 0.13 5.69 -21.73 50.77 37.94 -14.92 2.25 4.89 -3.77 -23.8 3.68 -4.67 -6.49 -17.98 35.92 -77.89 -40.18 14.74 -6.45 -21.46 -42.31 3.64
24.27 87.49 21.28 -140.77 -2.74 1.22 -3.55 5.87 0.52 -0.0 35.2 -0.0 -19.87 -30.16 15.68 -5.22 -31.93 5.92 0.0 32.27 0.0 -8.43 -5.58 -4.61 15.21 6.83 4.07 3.86 1.83 0.85 6.36 3.01 1.44 -0.61 -0.16 -0.36 -0.62 -0.17 -0.36 -10.66 -5.0 -6.17 -6.07 -2.88 2.0 7.52 -21.32 52.75 31.63 -15.37 2.08 3.82 -3.74 -23.96 5.19 -6.93 -8.22 -21.07 36.9 -85.54 -29.35 20.73 -5.58 -23.4 -41.44 -0.18
24.0 87.49 21.46 -140.66 -2.54 0.86 -3.79 5.9 0.6 0.0 34.84 -0.0 -19.85 -30.01 16.07 -5.1 -32.34 6.03 0.0 32.69 -0.0 -8.44 -5.66 -4.6 16.26 7.47 3.61 4.12 2.03 0.71 6.77 3.39 1.22 -0.69 -0.26 -0.33 -0.69 -0.27 -0.33 -11.94 -7.31 -5.26 -4.77 -4.01 4.22 17.69 -16.56 52.67 38.25 -10.61 6.55 1.83 -3.82 -22.06 7.73 -7.66 -9.35 -26.18 37.01 -95.15 -22.11 27.97 -5.15 -25.44 -38.78 -5.45
23.86 87.59 21.66 -140.23 -1.98 0.58 -3.7 5.52 1.0 -0.0 34.38 0.0 -20.5 -29.49 15.94 -5.01 -32.86 6.03 0.0 32.47 0.0 -8.29 -5.59 -4.49 16.48 7.52 3.38 4.26 3.45 0.65 6.78 2.07 0.96 -0.72 -0.28 -0.29 -0.73 -0.29 -0.29 -12.62 -7.67 -4.48 -3.69 -4.3 3.94 22.11 -16.04 51.32 51.21 -7.62 5.82 1.24 -3.66 -19.1 8.11 -7.63 -9.17 -29.94 37.41 -99.28 -17.87 29.56 -3.38 -25.35 -37.61 -10.49
23.7 87.69 22.1 -140.61 -1.78 0.35 -3.82 5.12 0.78 0.0 34.37 0.0 -19.99 -29.17 16.12 -5.21 -32.93 6.14 0.0 32.16 0.0 -8.4 -5.46 -4.48 16.2 7.32 3.08 4.1 2.0 0.58 6.73 3.36 1.02 -0.69 -0.22 -0.25 -0.69 -0.23 -0.25 -12.15 -6.13 -3.98 -3.56 -4.8 2.26 20.34 -23.92 45.04 48.74 -11.87 3.35 1.58 -3.45 -17.21 8.15 -7.59 -8.81 -29.42 39.6 -97.14 -6.24 29.33 1.28 -23.46 -37.41 -16.13
23.58 87.66 22.41 -140.54 -1.84 -0.01 -4.01 5.18 0.96 -0.0 34.23 -0.0 -20.17 -29.17 16.15 -5.45 -33.14 6.34 0.0 32.54 0.0 -8.5 -5.47 -4.28 15.52 7.13 3.38 3.93 1.93 0.67 6.47 3.22 1.15 -0.64 -0.16 -0.26 -0.64 -0.16 -0.26 -11.27 -4.59 -4.27 -4.85 -5.17 0.01 13.31 -26.91 42.2 41.88 -16.52 1.78 2.62 -4.43 -16.16 7.51 -6.66 -7.51 -24.66 42.27 -89.16 -2.84 23.96 4.1 -16.62 -38.53 -23.61
23.5 87.73 22.41 -140.82 -2.23 -0.28 -4.13 5.83 1.14 0.0 33.68 0.0 -20.18 -28.79 15.6 -5.62 -32.69 6.59 -0.0 32.77 -0.0 -8.72 -5.69 -3.79 14.99 7.17 3.8 3.8 1.93 0.78 6.27 3.19 1.33 -0.59 -0.07 -0.26 -0.6 -0.08 -0.26 -10.59 -2.58 -4.51 -7.75 -5.75 -1.39 8.85 -25.71 42.09 34.34 -17.15 0.22 3.77 -3.83 -13.49 6.12 -6.12 -6.66 -21.29 43.58 -83.22 -2.21 23.31 5.27 -12.98 -38.59 -27.07
23.77 87.78 22.22 -141.33 -2.27 -0.58 -4.23 5.99 1.5 -0.0 33.36 -0.0 -19.86 -28.67 15.32 -5.52 -32.61 7.23 0.0 33.04 0.0 -7.91 -6.12 -3.67 14.06 7.04 3.91 3.56 1.87 0.82 5.9 3.08 1.4 -0.49 -0.06 -0.3 -0.49 -0.06 -0.3 -8.67 -2.22 -5.28 -9.33 -5.48 -0.86 2.53 -21.27 42.94 36.11 -16.87 2.34 4.17 -3.65 -13.47 7.26 -5.42 -6.87 -19.5 43.91 -81.31 0.87 22.2 6.52 -11.53 -37.53 -29.62
24.06 87.76 22.31 -140.7 -2.11 -0.69 -4.61 5.88 1.77 0.0 33.23 0.0 -20.16 -28.84 15.81 -5.99 -32.8 7.42 -0.0 32.77 0.0 -7.95 -6.12 -3.85 13.36 7.33 3.8 3.38 1.95 0.79 5.62 3.22 1.36 -0.42 -0.09 -0.33 -0.42 -0.09 -0.33 -7.36 -2.74 -5.83 -9.48 -5.07 -0.09 0.12 -18.89 44.24 33.92 -16.73 4.05 3.71 -3.71 -13.83 7.87 -5.74 -6.93 -18.28 43.31 -80.14 -1.57 19.52 5.7 -8.87 -39.29 -30.7
24.03 87.81 22.41 -140.92 -1.99 -0.63 -4.64 5.76 1.58 0.0 33.13 0.0 -20.04 -28.81 16.1 -5.86 -32.83 7.32 0.0 32.68 -0.0 -7.96 -6.32 -3.71 13.21 7.54 4.18 3.35 1.99 0.88 5.58 3.28 1.51 -0.41 -0.09 -0.35 -0.41 -0.14 -0.35 -7.12 -2.78 -6.14 -8.26 -4.72 -0.26 2.49 -18.19 46.12 36.15 -15.33 4.91 4.0 -3.03 -13.6 7.71 -6.31 -7.42 -16.93 41.58 -78.89 -9.99 14.14 3.02 -6.07 -42.78 -29.06
23.73 87.82 22.45 -141.28 -1.53 -0.33 -4.76 5.37 0.99 -0.0 33.11 -0.0 -19.69 -28.85 16.14 -5.69 -33.2 6.93 0.0 32.79 0.0 -7.97 -6.33 -3.7 13.25 7.24 4.23 3.36 1.91 0.9 5.6 3.14 1.54 -0.41 -0.15 -0.35 -0.41 -0.15 -0.35 -7.08 -3.34 -6.15 -6.23 -3.81 -0.48 8.5 -19.35 45.84 42.28 -12.54 6.67 1.63 -3.56 -16.59 6.41 -6.58 -7.3 -19.44 39.93 -81.06 -16.49 13.07 1.35 -9.29 -45.29 -22.23
22.92 87.55 22.02 -140.74 -1.69 0.62 -4.43 5.87 0.13 0.0 33.64 -0.0 -20.85 -29.37 16.3 -5.42 -33.4 5.45 0.0 33.97 0.0 -7.8 -5.6 -3.8 13.36 7.3 3.6 3.39 1.94 0.74 5.62 3.21 1.28 -0.46 -0.14 -0.34 -0.47 -0.15 -0.34 -8.06 -4.01 -5.84 -4.99 -3.66 0.28 13.43 -22.27 45.41 46.9 -11.32 6.96 2.17 -2.98 -17.09 6.82 -6.8 -7.41 -21.17 38.98 -83.78 -16.31 16.08 0.82 -12.97 -46.31 -18.13
